PathFileType        4      (X/Y/Z)      Flexion.trc         																																																																												
DataRate	CameraRate	NumFrames	NumMarkers	Units	OrigDataRate	OrigDataStartFrame	OrigNumFrames																																																																					
100	100	4	25	mm	100	922	1053																																																																					
Frame#	Time	AA			AI			Ant_Sh			CV7			GH			LAH			Lat_Sh			LCAJ			LPH			Post_Sh			RAH			RCAJ			RHLE			RHME			RPH			RUA			SJN			SXS			TS			TV8			centelbow			centpxt8			centijc7			centLPHRPH			ScapulaThoracicContactPt		
		X1	Y1	Z1	X2	Y2	Z2	X3	Y3	Z3	X4	Y4	Z4	X5	Y5	Z5	X6	Y6	Z6	X7	Y7	Z7	X8	Y8	Z8	X9	Y9	Z9	X10	Y10	Z10	X11	Y11	Z11	X12	Y12	Z12	X13	Y13	Z13	X14	Y14	Z14	X15	Y15	Z15	X16	Y16	Z16	X17	Y17	Z17	X18	Y18	Z18	X19	Y19	Z19	X20	Y20	Z20	X21	Y21	Z21	X22	Y22	Z22	X23	Y23	Z23	X24	Y24	Z24	X25	Y25	Z25
922	9.21	-848.6290283	1557.631958	-398.0466919	-897.1688843	1369.434204	-441.2738342	-746.03479	1581.098022	-465.4761963	-912.0903931	1590.724609	-586.4934082	-788.8388062	1552.924805	-429.2366638	-703.9804688	1780.154419	-632.2570801	-792.8317871	1586.21814	-408.0702209	-862.0927124	1564.056274	-774.8253784	-906.3619995	1726.355835	-647.9428101	-850.1271973	1512.585449	-377.3475647	-708.8938599	1776.296875	-534.6015015	-825.8049316	1581.887817	-453.4703674	-533.3435059	1594.49585	-341.1455994	-492.4263916	1506.12915	-409.3105164	-906.6009521	1725.367432	-532.9233398	-677.2573853	1494.572632	-343.8318787	-738.9646606	1520.168457	-610.1165161	-674.3959961	1347.157227	-613.87323	-938.289917	1495.617065	-477.3770142	-906.6491699	1303.389771	-599.3647461	-512.8849487	1550.3125	-375.2280579	-790.522583	1325.273499	-606.618988	-825.5275269	1555.446533	-598.3049622	-906.4814758	1725.861633	-590.433075	-894.6959432	1474.227743	-438.8991801
923	9.22	-848.6970825	1557.669434	-398.15979	-897.1677856	1369.425049	-441.3157043	-746.0810547	1581.187012	-465.4892578	-912.045166	1590.727051	-586.4957275	-788.8583984	1553.001465	-429.2904968	-704.0172119	1780.206909	-632.2843018	-792.9227905	1586.246826	-408.2076111	-862.0817261	1564.091553	-774.8641357	-906.4358521	1726.344604	-647.9345093	-850.1763916	1512.599487	-377.4022827	-708.9414673	1776.318359	-534.6331177	-825.8203735	1581.887085	-453.6138306	-533.4265137	1594.594116	-341.1963196	-492.4466248	1506.242676	-409.2906189	-906.632019	1725.326538	-532.9192505	-677.3085938	1494.64917	-343.9449768	-738.9116211	1520.220459	-610.1693115	-674.3271484	1347.149902	-613.9332886	-938.2908325	1495.582153	-477.4490356	-906.5629272	1303.435303	-599.4465332	-512.9365692	1550.418396	-375.2434692	-790.4450378	1325.292603	-606.6899109	-825.4783936	1555.473755	-598.3325195	-906.5339355	1725.835571	-590.4268799	-894.7185669	1474.225545	-438.9748433
924	9.23	-848.7137451	1557.694458	-398.2362366	-897.1491699	1369.460938	-441.3912354	-746.0594482	1581.294434	-465.5309753	-912.0074463	1590.723511	-586.5233154	-788.8374634	1553.085815	-429.3626404	-704.0889282	1780.259888	-632.3284912	-792.9855957	1586.318481	-408.349762	-862.0526733	1564.100098	-774.8823853	-906.4521484	1726.321411	-647.9312744	-850.1859741	1512.63147	-377.4931335	-708.9388428	1776.365601	-534.6263428	-825.8426514	1581.94519	-453.7075806	-533.4758911	1594.79187	-341.1459351	-492.4667053	1506.371582	-409.2670593	-906.631958	1725.27771	-532.920105	-677.4009399	1494.699951	-343.9924622	-738.8156738	1520.14978	-610.2583008	-674.2822876	1347.135254	-614.0283813	-938.2810059	1495.600342	-477.5179749	-906.5328979	1303.404907	-599.4733887	-512.9712982	1550.581726	-375.2064972	-790.4075928	1325.270081	-606.750885	-825.4115601	1555.436646	-598.3908081	-906.5420532	1725.799561	-590.4256897	-894.7146403	1474.251912	-439.0484823
925	9.24	-848.6838989	1557.69873	-398.2723999	-897.1603394	1369.446777	-441.4318542	-746.0751953	1581.354248	-465.5906982	-911.9547119	1590.744385	-586.5491333	-788.8314819	1553.164063	-429.458374	-704.1278076	1780.279785	-632.3727417	-792.9692383	1586.378906	-408.4405823	-861.9881592	1564.094238	-774.909668	-906.4845581	1726.283569	-647.9121704	-850.2086182	1512.696533	-377.5900574	-708.9852905	1776.363647	-534.6779785	-825.8145142	1581.992432	-453.8433838	-533.5600586	1594.956177	-341.1135864	-492.4954224	1506.495483	-409.2918396	-906.6149902	1725.22583	-532.9133911	-677.4191284	1494.777222	-344.0448303	-738.7924805	1520.070801	-610.3148193	-674.2498169	1347.122803	-614.0762939	-938.2531128	1495.583862	-477.5211182	-906.5007935	1303.426147	-599.5373535	-513.0277405	1550.72583	-375.202713	-790.3753052	1325.274475	-606.8068237	-825.3735962	1555.407593	-598.4319763	-906.5497742	1725.7547	-590.4127808	-894.699117	1474.243123	-439.0751241
